<mxfile host="Electron" modified="2024-02-28T10:04:42.135Z" agent="Mozilla/5.0 (Windows NT 10.0; Win64; x64) AppleWebKit/537.36 (KHTML, like Gecko) draw.io/22.1.16 Chrome/120.0.6099.109 Electron/28.1.0 Safari/537.36" etag="dLgMiwAp4MCAcj5ONsXK" version="22.1.16" type="device">
  <diagram name="第 1 页" id="fUoMI_J6vjIv7TloS-qs">
    <mxGraphModel dx="925" dy="518" grid="1" gridSize="10" guides="1" tooltips="1" connect="1" arrows="1" fold="1" page="1" pageScale="1" pageWidth="3300" pageHeight="4681" math="0" shadow="0">
      <root>
        <mxCell id="0" />
        <mxCell id="1" parent="0" />
        <mxCell id="p-jfukO-ZT95A-_HgiDq-1" value="" style="rounded=1;whiteSpace=wrap;html=1;dashed=1;fillColor=#fff2cc;strokeColor=#d6b656;" parent="1" vertex="1">
          <mxGeometry x="110" y="100" width="240" height="350" as="geometry" />
        </mxCell>
        <mxCell id="p-jfukO-ZT95A-_HgiDq-34" style="edgeStyle=orthogonalEdgeStyle;rounded=0;orthogonalLoop=1;jettySize=auto;html=1;exitX=0.5;exitY=0;exitDx=0;exitDy=0;entryX=0.5;entryY=1;entryDx=0;entryDy=0;endArrow=none;endFill=0;" parent="1" source="p-jfukO-ZT95A-_HgiDq-12" target="p-jfukO-ZT95A-_HgiDq-15" edge="1">
          <mxGeometry relative="1" as="geometry" />
        </mxCell>
        <mxCell id="p-jfukO-ZT95A-_HgiDq-12" value="&lt;b&gt;&lt;font face=&quot;Tahoma&quot;&gt;Feedforward&lt;br&gt;down-project&lt;/font&gt;&lt;/b&gt;" style="rounded=1;whiteSpace=wrap;html=1;fillColor=#d5e8d4;strokeColor=#82b366;" parent="1" vertex="1">
          <mxGeometry x="170" y="332" width="120" height="50" as="geometry" />
        </mxCell>
        <mxCell id="p-jfukO-ZT95A-_HgiDq-38" style="edgeStyle=orthogonalEdgeStyle;rounded=0;orthogonalLoop=1;jettySize=auto;html=1;exitX=0.5;exitY=0;exitDx=0;exitDy=0;entryX=0.5;entryY=1;entryDx=0;entryDy=0;endArrow=none;endFill=0;" parent="1" source="p-jfukO-ZT95A-_HgiDq-15" target="p-jfukO-ZT95A-_HgiDq-18" edge="1">
          <mxGeometry relative="1" as="geometry" />
        </mxCell>
        <mxCell id="p-jfukO-ZT95A-_HgiDq-15" value="" style="rounded=0;whiteSpace=wrap;html=1;" parent="1" vertex="1">
          <mxGeometry x="187" y="300" width="83" height="20" as="geometry" />
        </mxCell>
        <mxCell id="p-jfukO-ZT95A-_HgiDq-16" value="" style="ellipse;whiteSpace=wrap;html=1;aspect=fixed;" parent="1" vertex="1">
          <mxGeometry x="198" y="300" width="20" height="20" as="geometry" />
        </mxCell>
        <mxCell id="p-jfukO-ZT95A-_HgiDq-17" value="" style="ellipse;whiteSpace=wrap;html=1;aspect=fixed;" parent="1" vertex="1">
          <mxGeometry x="237" y="300" width="20" height="20" as="geometry" />
        </mxCell>
        <mxCell id="p-jfukO-ZT95A-_HgiDq-37" style="edgeStyle=orthogonalEdgeStyle;rounded=0;orthogonalLoop=1;jettySize=auto;html=1;exitX=0.5;exitY=0;exitDx=0;exitDy=0;entryX=0.5;entryY=1;entryDx=0;entryDy=0;endArrow=none;endFill=0;" parent="1" source="p-jfukO-ZT95A-_HgiDq-18" target="p-jfukO-ZT95A-_HgiDq-19" edge="1">
          <mxGeometry relative="1" as="geometry" />
        </mxCell>
        <mxCell id="p-jfukO-ZT95A-_HgiDq-18" value="&lt;b&gt;&lt;font style=&quot;font-size: 13px;&quot;&gt;Nonlinearity&lt;/font&gt;&lt;/b&gt;" style="rounded=1;whiteSpace=wrap;html=1;fillColor=#d5e8d4;strokeColor=#82b366;" parent="1" vertex="1">
          <mxGeometry x="170" y="239" width="119" height="50" as="geometry" />
        </mxCell>
        <mxCell id="p-jfukO-ZT95A-_HgiDq-39" style="edgeStyle=orthogonalEdgeStyle;rounded=0;orthogonalLoop=1;jettySize=auto;html=1;exitX=0.5;exitY=0;exitDx=0;exitDy=0;entryX=0.5;entryY=1;entryDx=0;entryDy=0;endArrow=none;endFill=0;" parent="1" source="p-jfukO-ZT95A-_HgiDq-19" target="p-jfukO-ZT95A-_HgiDq-20" edge="1">
          <mxGeometry relative="1" as="geometry" />
        </mxCell>
        <mxCell id="p-jfukO-ZT95A-_HgiDq-19" value="&lt;b&gt;&lt;font style=&quot;font-size: 13px;&quot;&gt;Feedforwaed&lt;br&gt;up-project&lt;br&gt;&lt;/font&gt;&lt;/b&gt;" style="rounded=1;whiteSpace=wrap;html=1;fillColor=#d5e8d4;strokeColor=#82b366;" parent="1" vertex="1">
          <mxGeometry x="170" y="175" width="119" height="50" as="geometry" />
        </mxCell>
        <mxCell id="p-jfukO-ZT95A-_HgiDq-27" value="" style="group" parent="1" vertex="1" connectable="0">
          <mxGeometry x="150" y="140" width="160" height="20" as="geometry" />
        </mxCell>
        <mxCell id="p-jfukO-ZT95A-_HgiDq-20" value="" style="rounded=0;whiteSpace=wrap;html=1;" parent="p-jfukO-ZT95A-_HgiDq-27" vertex="1">
          <mxGeometry width="160" height="20" as="geometry" />
        </mxCell>
        <mxCell id="p-jfukO-ZT95A-_HgiDq-21" value="" style="ellipse;whiteSpace=wrap;html=1;aspect=fixed;" parent="p-jfukO-ZT95A-_HgiDq-27" vertex="1">
          <mxGeometry width="20" height="20" as="geometry" />
        </mxCell>
        <mxCell id="p-jfukO-ZT95A-_HgiDq-22" value="" style="ellipse;whiteSpace=wrap;html=1;aspect=fixed;" parent="p-jfukO-ZT95A-_HgiDq-27" vertex="1">
          <mxGeometry x="28" width="20" height="20" as="geometry" />
        </mxCell>
        <mxCell id="p-jfukO-ZT95A-_HgiDq-23" value="" style="ellipse;whiteSpace=wrap;html=1;aspect=fixed;" parent="p-jfukO-ZT95A-_HgiDq-27" vertex="1">
          <mxGeometry x="57" width="20" height="20" as="geometry" />
        </mxCell>
        <mxCell id="p-jfukO-ZT95A-_HgiDq-24" value="" style="ellipse;whiteSpace=wrap;html=1;aspect=fixed;" parent="p-jfukO-ZT95A-_HgiDq-27" vertex="1">
          <mxGeometry x="87" width="20" height="20" as="geometry" />
        </mxCell>
        <mxCell id="p-jfukO-ZT95A-_HgiDq-25" value="" style="ellipse;whiteSpace=wrap;html=1;aspect=fixed;" parent="p-jfukO-ZT95A-_HgiDq-27" vertex="1">
          <mxGeometry x="115" width="20" height="20" as="geometry" />
        </mxCell>
        <mxCell id="p-jfukO-ZT95A-_HgiDq-26" value="" style="ellipse;whiteSpace=wrap;html=1;aspect=fixed;" parent="p-jfukO-ZT95A-_HgiDq-27" vertex="1">
          <mxGeometry x="140" width="20" height="20" as="geometry" />
        </mxCell>
        <mxCell id="p-jfukO-ZT95A-_HgiDq-28" value="" style="group" parent="1" vertex="1" connectable="0">
          <mxGeometry x="150" y="397" width="160" height="20" as="geometry" />
        </mxCell>
        <mxCell id="p-jfukO-ZT95A-_HgiDq-3" value="" style="rounded=0;whiteSpace=wrap;html=1;" parent="p-jfukO-ZT95A-_HgiDq-28" vertex="1">
          <mxGeometry width="160" height="20" as="geometry" />
        </mxCell>
        <mxCell id="p-jfukO-ZT95A-_HgiDq-4" value="" style="ellipse;whiteSpace=wrap;html=1;aspect=fixed;" parent="p-jfukO-ZT95A-_HgiDq-28" vertex="1">
          <mxGeometry width="20" height="20" as="geometry" />
        </mxCell>
        <mxCell id="p-jfukO-ZT95A-_HgiDq-5" value="" style="ellipse;whiteSpace=wrap;html=1;aspect=fixed;" parent="p-jfukO-ZT95A-_HgiDq-28" vertex="1">
          <mxGeometry x="28" width="20" height="20" as="geometry" />
        </mxCell>
        <mxCell id="p-jfukO-ZT95A-_HgiDq-6" value="" style="ellipse;whiteSpace=wrap;html=1;aspect=fixed;" parent="p-jfukO-ZT95A-_HgiDq-28" vertex="1">
          <mxGeometry x="57" width="20" height="20" as="geometry" />
        </mxCell>
        <mxCell id="p-jfukO-ZT95A-_HgiDq-7" value="" style="ellipse;whiteSpace=wrap;html=1;aspect=fixed;" parent="p-jfukO-ZT95A-_HgiDq-28" vertex="1">
          <mxGeometry x="87" width="20" height="20" as="geometry" />
        </mxCell>
        <mxCell id="p-jfukO-ZT95A-_HgiDq-8" value="" style="ellipse;whiteSpace=wrap;html=1;aspect=fixed;" parent="p-jfukO-ZT95A-_HgiDq-28" vertex="1">
          <mxGeometry x="115" width="20" height="20" as="geometry" />
        </mxCell>
        <mxCell id="p-jfukO-ZT95A-_HgiDq-11" value="" style="ellipse;whiteSpace=wrap;html=1;aspect=fixed;" parent="p-jfukO-ZT95A-_HgiDq-28" vertex="1">
          <mxGeometry x="140" width="20" height="20" as="geometry" />
        </mxCell>
        <mxCell id="p-jfukO-ZT95A-_HgiDq-29" value="" style="endArrow=classic;html=1;rounded=0;entryX=0.5;entryY=1;entryDx=0;entryDy=0;" parent="1" target="p-jfukO-ZT95A-_HgiDq-3" edge="1">
          <mxGeometry width="50" height="50" relative="1" as="geometry">
            <mxPoint x="230" y="480" as="sourcePoint" />
            <mxPoint x="220" y="510" as="targetPoint" />
          </mxGeometry>
        </mxCell>
        <mxCell id="p-jfukO-ZT95A-_HgiDq-33" style="edgeStyle=orthogonalEdgeStyle;rounded=0;orthogonalLoop=1;jettySize=auto;html=1;exitX=0.5;exitY=0;exitDx=0;exitDy=0;entryX=0.5;entryY=1;entryDx=0;entryDy=0;endArrow=none;endFill=0;" parent="1" source="p-jfukO-ZT95A-_HgiDq-3" target="p-jfukO-ZT95A-_HgiDq-12" edge="1">
          <mxGeometry relative="1" as="geometry" />
        </mxCell>
        <mxCell id="aVy-RC84L18Uy9tMWcwm-3" style="edgeStyle=orthogonalEdgeStyle;rounded=0;orthogonalLoop=1;jettySize=auto;html=1;exitX=0.5;exitY=0;exitDx=0;exitDy=0;" edge="1" parent="1" source="p-jfukO-ZT95A-_HgiDq-40">
          <mxGeometry relative="1" as="geometry">
            <mxPoint x="229.66666666666663" y="70" as="targetPoint" />
          </mxGeometry>
        </mxCell>
        <mxCell id="p-jfukO-ZT95A-_HgiDq-40" value="&lt;font style=&quot;font-size: 14px;&quot;&gt;+&lt;/font&gt;" style="ellipse;whiteSpace=wrap;html=1;aspect=fixed;" parent="1" vertex="1">
          <mxGeometry x="218" y="106.5" width="23.5" height="23.5" as="geometry" />
        </mxCell>
        <mxCell id="p-jfukO-ZT95A-_HgiDq-41" value="" style="endArrow=classic;html=1;rounded=0;entryX=1;entryY=0.5;entryDx=0;entryDy=0;" parent="1" target="p-jfukO-ZT95A-_HgiDq-40" edge="1">
          <mxGeometry width="50" height="50" relative="1" as="geometry">
            <mxPoint x="230" y="440" as="sourcePoint" />
            <mxPoint x="420" y="120" as="targetPoint" />
            <Array as="points">
              <mxPoint x="330" y="440" />
              <mxPoint x="330" y="118" />
            </Array>
          </mxGeometry>
        </mxCell>
        <mxCell id="p-jfukO-ZT95A-_HgiDq-42" value="&lt;b&gt;Adapter&lt;br&gt;Layer&lt;/b&gt;" style="text;html=1;strokeColor=none;fillColor=none;align=center;verticalAlign=middle;whiteSpace=wrap;rounded=0;" parent="1" vertex="1">
          <mxGeometry x="110" y="110" width="60" height="30" as="geometry" />
        </mxCell>
        <mxCell id="aVy-RC84L18Uy9tMWcwm-2" style="edgeStyle=orthogonalEdgeStyle;rounded=0;orthogonalLoop=1;jettySize=auto;html=1;exitX=0.5;exitY=0;exitDx=0;exitDy=0;entryX=0.5;entryY=1;entryDx=0;entryDy=0;" edge="1" parent="1" source="p-jfukO-ZT95A-_HgiDq-20" target="p-jfukO-ZT95A-_HgiDq-40">
          <mxGeometry relative="1" as="geometry" />
        </mxCell>
      </root>
    </mxGraphModel>
  </diagram>
</mxfile>
